<svg xmlns="http://www.w3.org/2000/svg" xmlns:xlink="http://www.w3.org/1999/xlink" viewBox="0 0 96 96">
  <defs>
    <rect id="a" x="0" y="0" width="96" height="96" rx="21"/>
  </defs>
  <g fill="none" fill-rule="evenodd">
    <mask id="b" fill="#fff">
      <use xlink:href="#a"/>
    </mask>
    <g mask="url(#b)" fill-rule="nonzero">
      <path fill="#000" d="M0 0h96v96H0z"/>
      <path fill="#E00" d="M53.659 67.5h6.062l6.062 13L80.938 48H87L68.814 87h-6.062z"/>
      <path d="M11.712 28.416a5.096 5.096 0 0 1-1.737-1.174 5.265 5.265 0 0 1-1.115-1.766 6.03 6.03 0 0 1-.395-2.202 6.17 6.17 0 0 1 .384-2.2 5.217 5.217 0 0 1 1.096-1.766 4.992 4.992 0 0 1 1.717-1.175 5.731 5.731 0 0 1 2.25-.424 5.897 5.897 0 0 1 1.894.288c.536.172 1.035.44 1.474.792.414.343.76.762 1.017 1.234.265.489.446 1.02.532 1.57h-3.004a2.097 2.097 0 0 0-.632-1.153c-.316-.283-.732-.424-1.248-.424-.79 0-1.378.296-1.766.888-.389.592-.583 1.381-.582 2.368 0 .96.194 1.737.582 2.33.387.592.976.888 1.766.888.576 0 1.033-.164 1.372-.493.338-.33.539-.796.602-1.402h2.976a4.347 4.347 0 0 1-.405 1.668 4.196 4.196 0 0 1-.997 1.351c-.443.396-.96.7-1.52.898a5.789 5.789 0 0 1-1.984.325 5.856 5.856 0 0 1-2.277-.421Zm11.1-14.6v14.687h-3.12V13.815h3.12Zm4.164 14.6a5.112 5.112 0 0 1-2.88-2.94 6.336 6.336 0 0 1 0-4.402 5.112 5.112 0 0 1 2.88-2.94 6.336 6.336 0 0 1 4.559 0 5.067 5.067 0 0 1 1.746 1.174 5.28 5.28 0 0 1 1.116 1.766 6.336 6.336 0 0 1 0 4.402 5.28 5.28 0 0 1-1.116 1.766 5.08 5.08 0 0 1-1.746 1.174 6.336 6.336 0 0 1-4.559 0Zm4.056-2.744c.414-.612.621-1.412.621-2.4 0-1-.207-1.808-.621-2.427-.414-.618-1.01-.927-1.787-.928-.789 0-1.387.31-1.796.928-.408.62-.612 1.428-.611 2.427 0 .987.204 1.787.611 2.4.408.613 1.007.92 1.796.918.776-.003 1.372-.31 1.787-.922v.004ZM42.489 27h-.057c-.384.618-.825 1.072-1.323 1.362-.498.29-1.11.436-1.837.438-1.197 0-2.112-.352-2.744-1.056-.632-.704-.948-1.635-.948-2.793V18h3.1v6.355c0 .593.14 1.047.424 1.362.283.316.7.474 1.253.474.632 0 1.126-.21 1.48-.632.356-.421.534-.96.534-1.619V18h3.06v10.5h-2.942V27Zm6.454 1.45a4.003 4.003 0 0 1-1.423-1.104 5.042 5.042 0 0 1-.908-1.757 8.028 8.028 0 0 1-.316-2.339 7.249 7.249 0 0 1 .325-2.22 5.454 5.454 0 0 1 .918-1.757 4.197 4.197 0 0 1 1.432-1.152 4.148 4.148 0 0 1 1.865-.414c.724 0 1.336.155 1.835.464.519.328.956.769 1.281 1.29h.04a23.063 23.063 0 0 1-.06-1.126c-.012-.422-.019-.856-.02-1.302v-3.218h3.1v14.688h-2.976v-1.536h-.04a3.002 3.002 0 0 1-1.292 1.414 3.942 3.942 0 0 1-1.905.455 4.36 4.36 0 0 1-1.856-.385Zm4.44-2.96c.422-.572.632-1.319.632-2.24a5.28 5.28 0 0 0-.147-1.283 3.041 3.041 0 0 0-.445-1.016 2.08 2.08 0 0 0-.74-.661 2.162 2.162 0 0 0-1.035-.238c-.737 0-1.287.293-1.648.879-.362.585-.543 1.353-.544 2.301 0 .947.181 1.704.543 2.27.361.567.905.85 1.632.849.748-.001 1.332-.288 1.753-.861Z" fill="#FFF"/>
    </g>
  </g>
</svg>
