<svg xmlns="http://www.w3.org/2000/svg" viewBox="0 0 224 50">
  <g fill-rule="nonzero" fill="none">
    <path d="M165.578 48.632h9.792V30.71c0-4.1 2.371-6.98 5.895-6.98 3.388 0 5.15 2.406 5.15 5.794v19.11h9.791V27.66c0-7.115-4.269-12.13-11.18-12.13-4.405 0-7.488 1.898-9.792 5.353h-.203V16.48h-9.487v32.153h.034Zm-19.245-33.034c-10.232 0-17.076 7.352-17.076 17.042 0 9.623 6.844 17.043 17.076 17.043s17.076-7.42 17.076-17.043c0-9.724-6.844-17.042-17.076-17.042Zm-.068 26.8c-4.641 0-7.115-3.896-7.115-9.792 0-5.963 2.44-9.791 7.115-9.791 4.642 0 7.217 3.828 7.217 9.791 0 5.896-2.575 9.792-7.217 9.792Zm-44.926 6.234h27.512v-7.725h-15.586v-.203l14.908-16.703v-7.522h-26.834v7.725h15.077v.203l-15.077 16.84v7.385Zm-12.57 0h9.86V16.48h-9.86v32.153Zm-22.87 0h9.792V33.86c0-6.709 4.032-9.69 10.164-8.843h.203v-8.47c-.508-.204-1.05-.238-1.999-.238-3.828 0-6.403 1.762-8.605 5.523h-.204V16.48H65.9v32.153Zm-18.025-6.166c-4.337 0-6.98-2.846-7.488-7.15h23.175c.068-6.91-1.762-12.434-5.59-15.89-2.71-2.507-6.268-3.896-10.808-3.896-9.69 0-16.399 7.352-16.399 16.975 0 9.69 6.404 17.076 17.042 17.076 4.032 0 7.217-1.05 9.86-2.88 2.812-1.965 4.845-4.777 5.387-7.59h-9.419c-.915 2.101-2.88 3.355-5.76 3.355Zm-.508-19.922c3.456 0 5.828 2.575 6.234 6.335H40.454c.746-3.794 2.846-6.335 6.912-6.335ZM11.181 48.632h10.3L32.66 16.48h-9.859L16.5 37.146h-.135L10.063 16.48H0l11.18 32.153ZM88.769 5.027h9.86v8.741h-9.86V5.027Z" fill="#000"/>
    <path fill="#E00" d="M196.071 16.445h5.014l5.015 10.774L218.636.317h5.048l-15.077 32.289h-5.014z"/>
  </g>
</svg>
