<svg xmlns="http://www.w3.org/2000/svg" viewBox="0 0 288 288">
  <g fill="none" fill-rule="evenodd">
    <path fill="#E4E5E3" d="M0 0h288v288H0z"/>
    <path d="m191.96 114.86 6.02-6.019L161.139 72h-10.277v81.587a29.722 29.722 0 0 0-18.897-6.206 43.388 43.388 0 0 0-21.515 6.002c-17.442 10.07-25.196 29.296-17.318 42.941a27.115 27.115 0 0 0 24.333 12.475 43.388 43.388 0 0 0 21.515-6.002 38.002 38.002 0 0 0 20.367-31.12h.03v-64.816l20.292 20.292 6.02-6.02-26.312-26.31V82.279l32.583 32.581Zm-42.723 64.622a33.351 33.351 0 0 1-14.515 15.941 34.748 34.748 0 0 1-17.258 4.861 18.658 18.658 0 0 1-16.957-8.217 17.354 17.354 0 0 1-.314-15.368 33.353 33.353 0 0 1 14.515-15.941 34.755 34.755 0 0 1 17.258-4.862 18.657 18.657 0 0 1 16.957 8.217 17.356 17.356 0 0 1 .314 15.37Z" fill="#959595"/>
  </g>
</svg>
