<svg xmlns="http://www.w3.org/2000/svg" viewBox="0 0 288 288">
  <g fill="none" fill-rule="evenodd">
    <path fill="#E4E5E3" d="M0 0h288v288H0z"/>
    <path d="M75.6 92.7v102.6h136.8V92.7H75.6Zm128.44 94.24H83.96v-31.16l34.96-22.04L163 177.06l41.021-19.786.019 29.666Zm0-85.12v44.84l-38.76 19.76-44.84-43.325L83.96 145.9v-44.08h120.08Zm-30.4 13.68c-9.12 0-16.72 7.6-16.72 16.72s7.6 16.72 16.72 16.72 16.72-7.6 16.72-16.72-7.6-16.72-16.72-16.72Zm0 8.36c4.56 0 8.36 3.8 8.36 8.36s-3.8 8.36-8.36 8.36-8.36-3.8-8.36-8.36 3.8-8.36 8.36-8.36Z" fill="#959595"/>
  </g>
</svg>
